<svg xmlns="http://www.w3.org/2000/svg" xmlns:xlink="http://www.w3.org/1999/xlink" width="1565.41" height="2000" viewBox="0 0 1565.41 2000"><defs><clipPath id="a" transform="translate(-217.29 0)"><circle cx="1000" cy="1000" r="1000" style="fill:none"/></clipPath></defs><g style="clip-path:url(#a)"><path d="M840.44,1979.67c92.12,3.52,184.37,5.31,275.92,17.6q-36.81,2.7-74.32,2.73A1004.54,1004.54,0,0,1,840.44,1979.67Zm476.33-17.89c7.92-76.54-20.47-84.65-94.52-102.9-199.89-49.24-403-64.71-607.07-21.17-32.93,7-38.35,26.27-38.59,47.59a1004.71,1004.71,0,0,1-359.3-319.66l7.27-2.24c72.13-21.77,144.87-43.8,213.48-76.88,27.6-13.31,43.75-30,44.69-61.34,3.19-106.22-18.09-212,3.68-319.15,10-49.21-45.52,3-63-25.38-6.88-11.14-49.39,19.26-55.33-17.9-5.14-32.19,21.22-47.67,48.69-56.68,52.35-17.18,62-54.22,59.46-105.34-2.86-57.35-21.37-109.76-36.69-163.31-11.47-40.11-7.25-76.84,11-113,55.09-109.51,101.83-222.47,147-336.46C660.75,128.34,853.09,4.14,1027,.1q6-.09,12-.1,17.43.15,34.52,2c101.79,11,181.75,65.83,247.64,141.1,20.83,23.8,42.34,42.87,70.29,58.8,24.79,14.13,66.25,22.59,55.73,69.22-1.11,4.92,7.3,12.84,12.5,18.22,154.34,159.78,228,347,196.21,570.89-9.26,65.18-17.43,129.6-6.45,196.92,11.17,68.47-10.21,87.45-78.12,93.56a159.75,159.75,0,0,1-17.51.11c-101.66-2.08-176.28,30.84-203.19,140.78-12.74,52-53.17,88.52-97,120.43-13.15,9.57-74.39,4.64-26.1,51.77,9,8.74-11.15,16.33-22.77,16.47-74.68.91-144.35,20.12-211.24,53.09-44.52,21.94-96.08-.69-143.22,15.19,2.91,6.14,4.28,12.08,6,12.18,137.42,7.7,274.45,25,411.3-14,55.88-15.94,74.64-46.06,77.48-98.78,4.59-85.45,19.84-95.16,100.19-67,79.52,27.92,148.48,68.7,180.21,153.66,5.24,14.06,14.55,31.19,26.77,37.28,50.89,25.37,97.67,54.64,130.63,100C1659.12,1808,1498.51,1910,1316.77,1961.78ZM935,159.43c86.31,22.4,86.38,92.21,92.61,154.73,4.5,45.14,40.36,27.71,60.92,36.61,26.38,11.43,24.19-18.55,27.54-32.56,14.54-60.69,38.08-113.48,98.06-143.65,27.67-13.92,13.86-30.87-6.23-34.24C1118.13,125.25,1028.29,119.24,935,159.43Zm-88.2,663c130.89,8.93,263.71-13.71,392.81,24,24.12,7.06,33.68-11.83,54.16-22.35-8.89,49.95-4.93,97.81,8.83,145.34-132.4-142.07-251.94-159.56-403.91-59.56-25.87,17-35.76,32.75-27.29,66.59C892.58,1061,890,1061.59,979,1065.66c13.6.63,27.13,2.51,40.73,3.44,125.19,8.56,251.37,34.81,371.47-29.83,20.28-10.91,51.77-21.16,65.45,13.76,19.29-10.35,3.87-49.06,39.25-47.1,10.57.59,17,30.41,30.39,6.75,7.77-13.72,3-30.66-11.06-41.83-11.68-9.29-16-21.5-15.43-36,3.23-82.08-11.42-162.38-20.8-243.47-8.22-71-23-143.27-10.84-215.08,7.34-43.33-15-76.69-32.6-108.5-18.79-34-47.11,7.12-72.79,5.87-38.79-1.88-77.81,1-116.73,1.73-37,.71-64.13,28.33-75.84,52.82C1161,447.47,1205.15,449,1222,464c25.55,22.87,70.16,16.53,96,65.79-45.47-14.8-79.12-3.48-113.3-1.39-43.5,2.68-91.22,8.93-119.92-39.51-9.64-16.28-26.5-19.18-39.39-5-36.29,40-75.68,23.38-116.95,12.75,5.94-21.12,24.42-14,34.14-22.1,24.45-20.28,30.69-43.21-1.15-59.76-44-22.85-87.1-49.81-141.81-39.19-24.3,4.72-52.35,5.3-74.08-9.38-50.85-34.35-64.15-9.17-67.92,38.35-1,13.15-9.22,25.61-11.19,38.83-6.13,41.1-41.41,87.24,23,116.56,17.56,8,8.38,31.22,7.6,48.57-3,65.83-55.63,111-70.26,173.43-8,34.29-7.58,58.06,10.6,86.28,16.9,26.22,43.67,37.86,67.11,54.8,32.26,23.31,67.74,49.3,106.46,27.18,39-22.26,16.55-62.12,12.18-95.68C820.89,838.17,814.84,820.22,846.82,822.41ZM975.19,693.54c-19.27-7.33-36,4-53.76,7.19-2,.37-2.87,2.59-2.53,4.77.5,3.3,2.83,5.14,5.65,6.32,7.11,3,14.63,1.8,24.87,2,8.19,1.3,18.74-2.42,29.57-3.16,9.67-.67,9.18-5.46,4.79-11.76C981.7,696,978.52,694.81,975.19,693.54Z" transform="translate(-217.29 0)"/></g></svg>